<?plantuml 1.2026.2beta1?>
<svg xmlns="http://www.w3.org/2000/svg" xmlns:xlink="http://www.w3.org/1999/xlink" contentStyleType="text/css" data-diagram-type="STATE" height="163px" preserveAspectRatio="none" style="width:985px;height:163px;background:#FFFFFF;" version="1.1" viewBox="0 0 985 163" width="985px" zoomAndPan="magnify"><defs/><g><g><rect fill="#F1F1F1" height="80.5313" rx="12.5" ry="12.5" style="stroke:#181818;stroke-width:0.5;" width="123.4297" x="855.29" y="58.97"/><line style="stroke:#181818;stroke-width:0.5;" x1="855.29" x2="978.7197" y1="101.5638" y2="101.5638"/><text fill="#000000" font-family="sans-serif" font-size="14" lengthAdjust="spacing" textLength="65.3857" x="884.312" y="76.9651">Calculate</text><text fill="#000000" font-family="sans-serif" font-size="14" lengthAdjust="spacing" textLength="50.8184" x="891.5957" y="93.262">Metrics</text><text fill="#000000" font-family="sans-serif" font-size="12" lengthAdjust="spacing" textLength="103.4297" x="865.29" y="117.7024">Compute metrics</text><text fill="#000000" font-family="sans-serif" font-size="12" lengthAdjust="spacing" textLength="70.125" x="881.9423" y="131.6712">Export data</text></g><g><rect fill="#F1F1F1" height="80.5313" rx="12.5" ry="12.5" style="stroke:#181818;stroke-width:0.5;" width="120.5703" x="558.72" y="58.97"/><line style="stroke:#181818;stroke-width:0.5;" x1="558.72" x2="679.2903" y1="101.5638" y2="101.5638"/><text fill="#000000" font-family="sans-serif" font-size="14" lengthAdjust="spacing" textLength="64.333" x="586.8387" y="76.9651">Schedule</text><text fill="#000000" font-family="sans-serif" font-size="14" lengthAdjust="spacing" textLength="82.3867" x="577.8118" y="93.262">New Events</text><text fill="#000000" font-family="sans-serif" font-size="12" lengthAdjust="spacing" textLength="96.3047" x="570.8528" y="117.7024">Add new events</text><text fill="#000000" font-family="sans-serif" font-size="12" lengthAdjust="spacing" textLength="100.5703" x="568.72" y="131.6712">to priority queue</text></g><g><rect fill="#F1F1F1" height="108.4688" rx="12.5" ry="12.5" style="stroke:#181818;stroke-width:0.5;" width="120.916" x="407.8" y="7"/><line style="stroke:#181818;stroke-width:0.5;" x1="407.8" x2="528.716" y1="49.5938" y2="49.5938"/><text fill="#000000" font-family="sans-serif" font-size="14" lengthAdjust="spacing" textLength="53.6621" x="441.427" y="24.9951">Process</text><text fill="#000000" font-family="sans-serif" font-size="14" lengthAdjust="spacing" textLength="40.1064" x="448.2048" y="41.292">Event</text><text fill="#000000" font-family="sans-serif" font-size="12" lengthAdjust="spacing" textLength="99.0234" x="418.7463" y="65.7324">Scheduler check</text><text fill="#000000" font-family="sans-serif" font-size="12" lengthAdjust="spacing" textLength="100.916" x="417.8" y="79.7012">Transmit beacon</text><text fill="#000000" font-family="sans-serif" font-size="12" lengthAdjust="spacing" textLength="95.2324" x="420.6418" y="93.6699">Receive beacon</text><text fill="#000000" font-family="sans-serif" font-size="12" lengthAdjust="spacing" textLength="77.6719" x="429.4221" y="107.6387">Update state</text></g><g><rect fill="#F1F1F1" height="80.5313" rx="12.5" ry="12.5" style="stroke:#181818;stroke-width:0.5;" width="153.5996" x="224.2" y="58.97"/><line style="stroke:#181818;stroke-width:0.5;" x1="224.2" x2="377.7996" y1="101.5638" y2="101.5638"/><text fill="#000000" font-family="sans-serif" font-size="14" lengthAdjust="spacing" textLength="76.0361" x="262.9817" y="76.9651">Fetch Next</text><text fill="#000000" font-family="sans-serif" font-size="14" lengthAdjust="spacing" textLength="40.1064" x="280.9466" y="93.262">Event</text><text fill="#000000" font-family="sans-serif" font-size="12" lengthAdjust="spacing" textLength="133.5996" x="234.2" y="117.7024">Pop event from queue</text><text fill="#000000" font-family="sans-serif" font-size="12" lengthAdjust="spacing" textLength="82.793" x="259.6033" y="131.6712">Advance time</text></g><g><rect fill="#F1F1F1" height="80.5313" rx="12.5" ry="12.5" style="stroke:#181818;stroke-width:0.5;" width="156.2012" x="7" y="58.97"/><line style="stroke:#181818;stroke-width:0.5;" x1="7" x2="163.2012" y1="101.5638" y2="101.5638"/><text fill="#000000" font-family="sans-serif" font-size="14" lengthAdjust="spacing" textLength="58.5908" x="55.8052" y="76.9651">Initialize</text><text fill="#000000" font-family="sans-serif" font-size="14" lengthAdjust="spacing" textLength="67.5664" x="51.3174" y="93.262">Simulator</text><text fill="#000000" font-family="sans-serif" font-size="12" lengthAdjust="spacing" textLength="118.0898" x="26.0557" y="117.7024">Create components</text><text fill="#000000" font-family="sans-serif" font-size="12" lengthAdjust="spacing" textLength="136.2012" x="17" y="131.6712">Schedule initial events</text></g><!--link Init to Fetch--><g class="link" data-entity-1="ent0006" data-entity-2="ent0005" data-link-type="dependency" data-source-line="12" id="lnk2"><path d="M163.63,99.24 C183.23,99.24 198.27,99.24 217.81,99.24" fill="none" id="Init-to-Fetch" style="stroke:#181818;stroke-width:1;"/><polygon fill="#181818" points="223.81,99.24,214.81,95.24,218.81,99.24,214.81,103.24,223.81,99.24" style="stroke:#181818;stroke-width:1;"/></g><!--link Fetch to Process--><g class="link" data-entity-1="ent0005" data-entity-2="ent0004" data-link-type="dependency" data-source-line="15" id="lnk3"><path d="M377.86,81.79 C387.87,79.49 392.1731,78.507 401.8531,76.277" fill="none" id="Fetch-to-Process" style="stroke:#181818;stroke-width:1;"/><polygon fill="#181818" points="407.7,74.93,398.0317,73.0525,402.8276,76.0525,399.8277,80.8483,407.7,74.93" style="stroke:#181818;stroke-width:1;"/></g><!--link Process to Schedule--><g class="link" data-entity-1="ent0004" data-entity-2="ent0003" data-link-type="dependency" data-source-line="18" id="lnk4"><path d="M528.9,76.47 C538.6,78.95 542.837,80.0338 552.537,82.5138" fill="none" id="Process-to-Schedule" style="stroke:#181818;stroke-width:1;"/><polygon fill="#181818" points="558.35,84,550.6213,77.8953,553.5058,82.7615,548.6397,85.646,558.35,84" style="stroke:#181818;stroke-width:1;"/></g><!--link Schedule to Fetch--><g class="link" data-entity-1="ent0003" data-entity-2="ent0005" data-link-type="dependency" data-source-line="21" id="lnk5"><path d="M558.46,133.96 C548.79,138.2 538.68,141.87 528.72,144.24 C476.43,156.67 460.46,154.97 407.8,144.24 C398.02,142.24 393.6924,141.2942 383.9324,137.8742" fill="none" id="Schedule-to-Fetch" style="stroke:#181818;stroke-width:1;"/><polygon fill="#181818" points="378.27,135.89,385.4409,142.6412,382.9887,137.5435,388.0864,135.0913,378.27,135.89" style="stroke:#181818;stroke-width:1;"/><text fill="#000000" font-family="sans-serif" font-size="13" lengthAdjust="spacing" textLength="103.2319" x="416.76" y="140.3069">time &lt; duration</text></g><!--link Schedule to Results--><g class="link" data-entity-1="ent0003" data-entity-2="ent0002" data-link-type="dependency" data-source-line="23" id="lnk6"><path d="M679.55,99.24 C730.53,99.24 797.64,99.24 849.03,99.24" fill="none" id="Schedule-to-Results" style="stroke:#181818;stroke-width:1;"/><polygon fill="#181818" points="855.03,99.24,846.03,95.24,850.03,99.24,846.03,103.24,855.03,99.24" style="stroke:#181818;stroke-width:1;"/><text fill="#000000" font-family="sans-serif" font-size="13" lengthAdjust="spacing" textLength="114.1245" x="710.29" y="95.3069">time &gt;= duration</text></g><?plantuml-src LPBDJiCm3CVlUGfhzxt019Ec2IGEe6aRjrv2uZ6BnYbEEWPFZziq7LpovP_jl-sa3-BEYWtWyMJxDX_ncZSjlND0pk1qGJ4jdZBa24BlvmoU15scoCQaR3F2OcjRrxTwRFWPiv1B2x09zfWqOghKmPtHzwr2B_W53nUDNRXggE1EeiEK6XwP4PcUAl68sPtXHRN-XSRNYZmnPR8j_MY-0uL1NfGH6op632kiO2iuu2w6BlAWIEb93b090JXAdLoMo_MKg8XOmIvs1O6Jn02VFVQQS-ClbXr2fe1cOjMr5ZBjwbxJ2UZ1VJHy5CifQAetj2vomtjqI1USxw-T7pIFXPevaWQV6pcNi8ADzy3Qxr94mph6JYWAvUyYrTpekJRr6tJ37VXUR9drFseQRUNMzpVmPjfgKtiL6igVq55TkoZwWMoslm00?></g></svg>